<svg width="14" height="19" viewBox="0 0 14 19" fill="none" xmlns="http://www.w3.org/2000/svg">
<path d="M7.75 15.925V18.75H6.25V15.925V15.7064L6.03335 15.6772C4.36022 15.452 2.98259 14.7068 1.88948 13.4369C0.84977 12.229 0.305468 10.8365 0.254027 9.25H1.75518C1.81127 10.5928 2.32292 11.7515 3.28572 12.7143C4.30778 13.7363 5.55061 14.25 7 14.25C8.4494 14.25 9.69222 13.7363 10.7143 12.7143C11.6771 11.7515 12.1887 10.5928 12.2448 9.25H13.746C13.6945 10.8365 13.1502 12.229 12.1105 13.4369C11.0174 14.7068 9.63978 15.452 7.96665 15.6772L7.75 15.7064V15.925ZM7 11.75C6.23221 11.75 5.58769 11.4841 5.05178 10.9482C4.51586 10.4123 4.25 9.76779 4.25 9V3C4.25 2.23221 4.51586 1.58769 5.05178 1.05178C5.58769 0.51586 6.23221 0.25 7 0.25C7.76779 0.25 8.41231 0.51586 8.94822 1.05178C9.48414 1.58769 9.75 2.23221 9.75 3V9C9.75 9.76779 9.48414 10.4123 8.94822 10.9482C8.41231 11.4841 7.76779 11.75 7 11.75Z" fill="#3B3A3A" stroke="#213629" stroke-width="0.5"/>
</svg>
